<?xml version="1.0" encoding="UTF-8"?><svg id="Layer_2" xmlns="http://www.w3.org/2000/svg" viewBox="0 0 19 19.5"><defs><style>.cls-1{fill:none;}.cls-1,.cls-2{stroke:#696bb1;stroke-miterlimit:10;}.cls-2{fill:#696bb1;stroke-width:.5px;}</style></defs><g id="Layer_1-2"><rect class="cls-1" x=".5" y="2" width="18" height="17" rx="2.5" ry="2.5"/><circle class="cls-2" cx="9.5" cy="16.48" r="1.5"/><circle class="cls-2" cx="4.18" cy="16.52" r="1.5"/><circle class="cls-2" cx="14.5" cy="12.5" r="1.5"/><circle class="cls-2" cx="9.5" cy="12.48" r="1.5"/><circle class="cls-2" cx="4.18" cy="12.52" r="1.5"/><circle class="cls-2" cx="14.5" cy="8.5" r="1.5"/><circle class="cls-2" cx="9.5" cy="8.48" r="1.5"/><line class="cls-1" x1=".5" y1="5.5" x2="18.5" y2="5.5"/><rect class="cls-1" x="3" y=".5" width="1" height="3" rx=".5" ry=".5" transform="translate(7 4) rotate(180)"/><rect class="cls-1" x="6" y=".5" width="1" height="3" rx=".5" ry=".5" transform="translate(13 4) rotate(180)"/><rect class="cls-1" x="9" y=".5" width="1" height="3" rx=".5" ry=".5" transform="translate(19 4) rotate(180)"/><rect class="cls-1" x="12" y=".5" width="1" height="3" rx=".5" ry=".5" transform="translate(25 4) rotate(-180)"/><rect class="cls-1" x="15" y=".5" width="1" height="3" rx=".5" ry=".5" transform="translate(31 4) rotate(-180)"/></g></svg>