<?xml version="1.0" encoding="utf-8"?>
<!-- Generator: Adobe Illustrator 26.3.1, SVG Export Plug-In . SVG Version: 6.00 Build 0)  -->
<svg version="1.1" id="Layer_2_00000095314034345153126520000017055333139326257285_"
	 xmlns="http://www.w3.org/2000/svg" xmlns:xlink="http://www.w3.org/1999/xlink" x="0px" y="0px" viewBox="0 0 17 17"
	 style="enable-background:new 0 0 17 17;" xml:space="preserve">
<style type="text/css">
	.st0{fill:none;stroke:#696BB1;stroke-width:2;stroke-miterlimit:10;}
</style>
<g id="Layer_1-2">
	<path class="st0" d="M9,8.5L13.5,4c0.1-0.1,0.1-0.2,0-0.2l-0.3-0.3c-0.1-0.1-0.2-0.1-0.2,0L8.5,8L4,3.5C4,3.5,3.9,3.5,3.8,3.5
		L3.5,3.8C3.5,3.9,3.5,4,3.5,4L8,8.5L3.5,13c-0.1,0.1-0.1,0.2,0,0.2l0.3,0.3c0.1,0.1,0.2,0.1,0.2,0L8.5,9l4.5,4.5
		c0.1,0.1,0.2,0.1,0.2,0l0.3-0.3c0.1-0.1,0.1-0.2,0-0.2L9,8.5L9,8.5z"/>
</g>
</svg>
