<svg width="19" height="17" viewBox="0 0 19 17" fill="none" xmlns="http://www.w3.org/2000/svg">
<path d="M12.6678 4.04746C12.6678 3.83828 12.5853 3.63574 12.4368 3.48633L9.20722 0.232422C9.05877 0.0830078 8.85754 0 8.64641 0H8.44518V4.25H12.6678V4.04746ZM18.8367 10.2266L15.6797 7.02578C15.3465 6.69043 14.7758 6.92617 14.7758 7.40098V9.5625H12.6645V11.6875H14.7758V13.8523C14.7758 14.3271 15.3465 14.5629 15.6797 14.2275L18.8367 11.0234C19.0544 10.8043 19.0544 10.4457 18.8367 10.2266ZM6.33388 11.1562V10.0938C6.33388 9.80156 6.5714 9.5625 6.86171 9.5625H12.6678V5.3125H8.18127C7.74581 5.3125 7.38953 4.95391 7.38953 4.51562V0H0.791735C0.352982 0 0 0.355273 0 0.796875V16.2031C0 16.6447 0.352982 17 0.791735 17H11.876C12.3148 17 12.6678 16.6447 12.6678 16.2031V11.6875H6.86171C6.5714 11.6875 6.33388 11.4484 6.33388 11.1562Z" fill="#716EF4"/>
</svg>
