<?xml version="1.0" encoding="UTF-8"?><svg id="Layer_2" xmlns="http://www.w3.org/2000/svg" viewBox="0 0 19.98 19.48"><defs><style>.cls-1{fill:#6a6cb2;}</style></defs><g id="Layer_1-2"><g><path class="cls-1" d="M19.54,8.92L11.05,.44c-.59-.59-1.54-.59-2.12,0l-1.06,1.06,.02,.02L.44,8.97c-.59,.59-.59,1.54,0,2.12,.59,.59,1.54,.59,2.12,0L10.01,3.64l7.41,7.41c.59,.59,1.54,.59,2.12,0,.59-.59,.59-1.54,0-2.12Z"/><path class="cls-1" d="M10.01,4.85L2.51,12.35v7.13h15v-7.13l-7.5-7.5Zm-.26,12.33h-3v-3h3v3Zm0-3.51h-3v-3h3v3Zm3.52,3.51h-3v-3h3v3Zm0-3.51h-3v-3h3v3Z"/></g></g></svg>