<?xml version="1.0" encoding="UTF-8"?><svg id="Layer_2" xmlns="http://www.w3.org/2000/svg" viewBox="0 0 18 17"><defs><style>.cls-1,.cls-2{fill:#696bb1;}.cls-3,.cls-4{fill:#fff;}.cls-3,.cls-4,.cls-2,.cls-5{stroke-miterlimit:10;}.cls-3,.cls-2{stroke:#fff;stroke-width:.5px;}.cls-4{stroke-width:.25px;}.cls-4,.cls-5{stroke:#696cb2;}.cls-5{fill:none;}</style></defs><g id="Layer_1-2"><rect class="cls-1" x=".5" width="17" height="17" rx="2.5" ry="2.5"/><circle class="cls-3" cx="9" cy="14.48" r="1.5"/><circle class="cls-3" cx="3.68" cy="14.52" r="1.5"/><circle class="cls-3" cx="14" cy="10.5" r="1.5"/><circle class="cls-3" cx="9" cy="10.48" r="1.5"/><circle class="cls-3" cx="3.68" cy="10.52" r="1.5"/><circle class="cls-3" cx="14" cy="6.5" r="1.5"/><circle class="cls-3" cx="9" cy="6.48" r="1.5"/><line class="cls-2" x1="0" y1="3.63" x2="18" y2="3.62"/><g><path class="cls-4" d="M3,1.83c0,.37,.45,.67,1,.67s1-.3,1-.67V.5H3V1.83Z"/><path class="cls-5" d="M3.75,1.08c0,.09,.11,.17,.25,.17s.25-.07,.25-.17v-.33h-.5v.33Z"/></g><g><path class="cls-4" d="M8,1.83c0,.37,.45,.67,1,.67s1-.3,1-.67V.5h-2V1.83Z"/><path class="cls-5" d="M8.75,1.08c0,.09,.11,.17,.25,.17s.25-.07,.25-.17v-.33h-.5v.33Z"/></g><g><path class="cls-4" d="M13,1.83c0,.37,.45,.67,1,.67s1-.3,1-.67V.5h-2V1.83Z"/><path class="cls-5" d="M13.75,1.08c0,.09,.11,.17,.25,.17s.25-.07,.25-.17v-.33h-.5v.33Z"/></g></g></svg>