<?xml version="1.0" encoding="UTF-8"?><svg id="Layer_2" xmlns="http://www.w3.org/2000/svg" viewBox="0 0 15 15"><defs><style>.cls-1{fill:#6a6cb2;}</style></defs><g id="Layer_1-2"><g><path class="cls-1" d="M7.5,2c-3.04,0-5.5,2.46-5.5,5.5s2.46,5.5,5.5,5.5,5.5-2.46,5.5-5.5S10.54,2,7.5,2Zm0,10.5c-2.76,0-5-2.24-5-5S4.74,2.5,7.5,2.5s5,2.24,5,5-2.24,5-5,5Z"/><circle class="cls-1" cx="7.5" cy="7.5" r="4.5"/><g><path class="cls-1" d="M4.97,3.21l-1.19-1.19c-.39-.39-1.02-.39-1.41,0l-.35,.35c-.39,.39-.39,1.02,0,1.41l1.19,1.19c.43-.73,1.04-1.34,1.77-1.77Z"/><path class="cls-1" d="M12.98,11.21l-1.19-1.19c-.43,.73-1.04,1.34-1.77,1.77l1.19,1.19c.39,.39,1.02,.39,1.41,0l.35-.35c.39-.39,.39-1.02,0-1.41Z"/></g><g><path class="cls-1" d="M3.21,10.03l-1.19,1.19c-.39,.39-.39,1.02,0,1.41l.35,.35c.39,.39,1.02,.39,1.41,0l1.19-1.19c-.73-.43-1.34-1.04-1.77-1.77Z"/><path class="cls-1" d="M12.98,2.37l-.35-.35c-.39-.39-1.02-.39-1.41,0l-1.19,1.19c.73,.43,1.34,1.04,1.77,1.77l1.19-1.19c.39-.39,.39-1.02,0-1.41Z"/></g><g><path class="cls-1" d="M7.5,2.5c.43,0,.85,.07,1.25,.18V1c0-.55-.45-1-1-1h-.5c-.55,0-1,.45-1,1v1.68c.4-.1,.82-.18,1.25-.18Z"/><path class="cls-1" d="M7.5,12.5c-.43,0-.85-.07-1.25-.18v1.68c0,.55,.45,1,1,1h.5c.55,0,1-.45,1-1v-1.68c-.4,.1-.82,.18-1.25,.18Z"/></g><g><path class="cls-1" d="M2.5,7.5c0-.43,.07-.85,.18-1.25H1c-.55,0-1,.45-1,1v.5c0,.55,.45,1,1,1h1.68c-.1-.4-.18-.82-.18-1.25Z"/><path class="cls-1" d="M14,6.25h-1.68c.1,.4,.18,.82,.18,1.25s-.07,.85-.18,1.25h1.68c.55,0,1-.45,1-1v-.5c0-.55-.45-1-1-1Z"/></g></g></g></svg>